<svg width="256" height="256" viewBox="0 0 256 256" fill="none" xmlns="http://www.w3.org/2000/svg">
  <defs>
    <linearGradient id="bg_grad" x1="0%" y1="0%" x2="100%" y2="100%">
      <stop offset="0%" stop-color="#4cb8ff"/>
      <stop offset="50%" stop-color="#234adb"/>
      <stop offset="100%" stop-color="#2c1274"/>
    </linearGradient>

    <filter id="glow_shadow" x="-20%" y="-20%" width="140%" height="140%">
      <feDropShadow dx="0" dy="6" stdDeviation="8" flood-color="#060c2b" flood-opacity="0.35"/>
    </filter>

    <g id="star">
      <path d="M 0 -12 C 2 -4 4 -2 12 0 C 4 2 2 4 0 12 C -2 4 -4 2 -12 0 C -4 -2 -2 -4 0 -12 Z" fill="white"/>
    </g>
  </defs>

  <rect width="256" height="256" rx="60" fill="url(#bg_grad)"/>

  <g filter="url(#glow_shadow)">
    
    <g stroke="white" stroke-width="16" stroke-linecap="round">
      <path d="M 90 45 L 90 143"/>
      
      <path d="M 90 185 L 90 210"/>
      
      <path d="M 90 130 C 90 70, 155 105, 155 55" fill="none"/>
    </g>

    <circle cx="90" cy="164" r="14" fill="none" stroke="white" stroke-width="14"/>
    
    <circle cx="155" cy="55" r="18" fill="white"/>


    <g>
      <path d="M 130 135 
               Q 130 125 140 125 
               L 170 125 
               L 194 149 
               L 194 199 
               Q 194 209 184 209 
               L 140 209 
               Q 130 209 130 199 Z" 
            fill="rgba(255, 255, 255, 0.95)"/>
            
      <path d="M 170 125 
               L 170 145 
               Q 170 149 174 149 
               L 194 149 Z" 
            fill="rgba(220, 230, 250, 0.95)"/>

      <rect x="142" y="155" width="40" height="6" rx="3" fill="#a0baf2" opacity="0.85"/>
      <rect x="142" y="170" width="40" height="6" rx="3" fill="#a0baf2" opacity="0.85"/>
      <rect x="142" y="185" width="24" height="6" rx="3" fill="#a0baf2" opacity="0.85"/>
    </g>


    <use href="#star" transform="translate(215, 120) scale(1.4)"/>
    
    <use href="#star" transform="translate(182, 92) scale(0.9)"/>
    
    <use href="#star" transform="translate(192, 145) scale(0.8)"/>

  </g>
</svg>
